<svg width="20" height="20" viewBox="0 0 20 20" fill="none" xmlns="http://www.w3.org/2000/svg">
<path d="M18.625 5.26562H15.1656C15.4844 4.76406 15.6719 4.16875 15.6719 3.53125C15.6719 1.74766 14.2211 0.296875 12.4375 0.296875C11.4672 0.296875 10.593 0.728125 10 1.40781C9.40703 0.728125 8.53281 0.296875 7.5625 0.296875C5.77891 0.296875 4.32812 1.74766 4.32812 3.53125C4.32812 4.16875 4.51328 4.76406 4.83438 5.26562H1.375C0.960156 5.26562 0.625 5.60078 0.625 6.01562V10.7031C0.625 10.8062 0.709375 10.8906 0.8125 10.8906H1.75V18.9531C1.75 19.368 2.08516 19.7031 2.5 19.7031H17.5C17.9148 19.7031 18.25 19.368 18.25 18.9531V10.8906H19.1875C19.2906 10.8906 19.375 10.8062 19.375 10.7031V6.01562C19.375 5.60078 19.0398 5.26562 18.625 5.26562ZM9.20312 18.1094H3.34375V10.8906H9.20312V18.1094ZM9.20312 9.29688H2.21875V6.85938H9.20312V9.29688ZM9.20312 5.17188H7.5625C6.65781 5.17188 5.92188 4.43594 5.92188 3.53125C5.92188 2.62656 6.65781 1.89062 7.5625 1.89062C8.46719 1.89062 9.20312 2.62656 9.20312 3.53125V5.17188ZM10.7969 3.53125C10.7969 2.62656 11.5328 1.89062 12.4375 1.89062C13.3422 1.89062 14.0781 2.62656 14.0781 3.53125C14.0781 4.43594 13.3422 5.17188 12.4375 5.17188H10.7969V3.53125ZM16.6562 18.1094H10.7969V10.8906H16.6562V18.1094ZM17.7812 9.29688H10.7969V6.85938H17.7812V9.29688Z" fill="#CD0691"/>
</svg>
