<svg width="18" height="18" viewBox="0 0 18 18" fill="none" xmlns="http://www.w3.org/2000/svg">
<path d="M9 0C4.02891 0 0 4.02891 0 9V17.4375C0 17.7492 0.250781 18 0.5625 18H4.875C5.70234 18 6.375 17.3273 6.375 16.5V11.625C6.375 10.7977 5.70234 10.125 4.875 10.125H1.6875V9C1.6875 4.96172 4.96172 1.6875 9 1.6875C13.0383 1.6875 16.3125 4.96172 16.3125 9V10.125H13.125C12.2977 10.125 11.625 10.7977 11.625 11.625V16.5C11.625 17.3273 12.2977 18 13.125 18H17.4375C17.7492 18 18 17.7492 18 17.4375V9C18 4.02891 13.9711 0 9 0ZM4.6875 11.8125V16.3125H1.6875V11.8125H4.6875ZM16.3125 16.3125H13.3125V11.8125H16.3125V16.3125Z" fill="#CD0691"/>
</svg>
