<svg width="22" height="22" viewBox="0 0 22 22" fill="none" xmlns="http://www.w3.org/2000/svg">
<path d="M21.2883 10.9531C21.2883 10.9508 21.286 10.9508 21.286 10.9484L21.2438 10.8992C21.2414 10.8969 21.2391 10.8922 21.2344 10.8898C21.218 10.8711 21.1993 10.8523 21.1828 10.8336L12.1266 1.78437L11.5196 1.17734C11.3813 1.03994 11.1942 0.96283 10.9993 0.96283C10.8043 0.96283 10.6173 1.03994 10.4789 1.17734L0.815662 10.8359C0.641088 11.0096 0.512251 11.2238 0.440662 11.4594L0.426599 11.5086L0.419568 11.5344L0.412537 11.5625C0.407849 11.5789 0.405505 11.5953 0.403162 11.6117C0.403162 11.6141 0.403162 11.6187 0.400818 11.6211C0.386755 11.6914 0.379724 11.7617 0.37738 11.8344V11.9117C0.37738 11.9234 0.37738 11.9352 0.379724 11.9469C0.379724 11.9586 0.379724 11.968 0.382068 11.9797C0.382068 11.9914 0.384412 12.0031 0.384412 12.0148C0.384412 12.0289 0.386755 12.043 0.389099 12.057C0.389099 12.0641 0.391443 12.0711 0.391443 12.0781L0.398474 12.1367V12.1391C0.518005 12.8539 1.15316 13.393 1.89847 13.393H2.89457V21.0312H19.1063V13.3977H20.1235C20.325 13.3977 20.5196 13.3578 20.6977 13.2828C20.8758 13.2078 21.0422 13.0977 21.1852 12.957C21.3248 12.8178 21.4355 12.6523 21.5107 12.4701C21.5859 12.2878 21.6243 12.0925 21.6235 11.8953C21.6235 11.5508 21.5063 11.2203 21.2883 10.9531ZM12.3118 19.3437H9.68676V14.5625H12.3118V19.3437ZM17.4188 11.7102V19.3437H13.8118V14C13.8118 13.482 13.3922 13.0625 12.8743 13.0625H9.12426C8.60629 13.0625 8.18676 13.482 8.18676 14V19.3437H4.57972V11.7102H2.32972L11.0016 3.04531L11.543 3.58672L19.6711 11.7102H17.4188Z" fill="#CD0691"/>
</svg>
