<svg width="14" height="14" viewBox="0 0 14 14" fill="none" xmlns="http://www.w3.org/2000/svg">
<path d="M0.75 7.25002V12.9375C0.75 13.2141 0.973437 13.4375 1.25 13.4375H2.26562V6.75002H1.25C0.973437 6.75002 0.75 6.97345 0.75 7.25002ZM12.8422 7.33908C13.1047 6.99221 13.25 6.5672 13.25 6.12502C13.25 5.42345 12.8578 4.75783 12.2266 4.39064C12.0641 4.29532 11.879 4.24515 11.6906 4.24533H7.94219L8.03594 2.32502C8.05937 1.86096 7.89531 1.42033 7.575 1.08439C7.4187 0.918648 7.23 0.786797 7.02061 0.697023C6.81123 0.607248 6.58563 0.561466 6.35781 0.562518C5.54531 0.562518 4.82656 1.10939 4.61094 1.89221L3.27031 6.74845L3.26562 13.436H10.6422C10.7875 13.436 10.9266 13.4078 11.0562 13.3516C11.8 13.0344 12.2797 12.3078 12.2797 11.5016C12.2797 11.3047 12.2516 11.111 12.1953 10.9235C12.4578 10.5766 12.6031 10.1516 12.6031 9.70939C12.6031 9.51252 12.575 9.31877 12.5188 9.13127C12.7812 8.78439 12.9266 8.35939 12.9266 7.9172C12.9266 7.72033 12.8984 7.52658 12.8422 7.33908ZM11.8188 6.79689L11.4766 7.09377L11.6953 7.4922C11.7669 7.62294 11.804 7.76973 11.8031 7.91877C11.8031 8.17658 11.6922 8.42189 11.4969 8.59064L11.1547 8.88752L11.3719 9.28439C11.4434 9.41513 11.4805 9.56192 11.4797 9.71095C11.4797 9.96877 11.3687 10.2141 11.1734 10.3828L10.8313 10.6797L11.0484 11.0766C11.12 11.2073 11.1571 11.3541 11.1562 11.5031C11.1562 11.8531 10.95 12.1688 10.6313 12.3125H4.39062V6.91877C4.68125 5.86877 5.11562 4.29377 5.69531 2.19221C5.73581 2.04806 5.82198 1.92095 5.94087 1.82995C6.05977 1.73895 6.20497 1.68897 6.35469 1.68752C6.47188 1.68596 6.58906 1.72189 6.68437 1.79221C6.83906 1.90783 6.92188 2.08283 6.9125 2.26877L6.7625 5.36877H11.675C11.9531 5.53908 12.125 5.82658 12.125 6.12502C12.125 6.38283 12.0141 6.62814 11.8188 6.79689Z" fill="#CD0691"/>
</svg>
