<svg width="20" height="20" viewBox="0 0 20 20" fill="none" xmlns="http://www.w3.org/2000/svg">
<path d="M18.7633 10.5094C19.157 9.98906 19.375 9.35156 19.375 8.68827C19.375 7.63593 18.7867 6.63984 17.8398 6.08437C17.5961 5.94139 17.3185 5.86614 17.0359 5.8664H11.4156L11.5563 2.98593C11.5891 2.28984 11.343 1.6289 10.8648 1.12499C10.6302 0.876621 10.3471 0.679008 10.0331 0.544365C9.71905 0.409721 9.38074 0.340909 9.03906 0.34218C7.82031 0.34218 6.74219 1.16249 6.41875 2.33671L4.40547 9.62578H1.375C0.960156 9.62578 0.625 9.96093 0.625 10.3758V18.907C0.625 19.3219 0.960156 19.657 1.375 19.657H15.468C15.6836 19.657 15.8945 19.6148 16.0891 19.5305C17.2047 19.0547 17.9242 17.9648 17.9242 16.7555C17.9242 16.4601 17.882 16.1695 17.7977 15.8883C18.1914 15.368 18.4094 14.7305 18.4094 14.0672C18.4094 13.7719 18.3672 13.4812 18.2828 13.2C18.6766 12.6797 18.8945 12.0422 18.8945 11.3789C18.8898 11.0836 18.8477 10.7906 18.7633 10.5094ZM2.3125 17.9695V11.3133H4.21094V17.9695H2.3125ZM17.2281 9.69609L16.7148 10.1414L17.0406 10.7367C17.148 10.9328 17.2036 11.153 17.2023 11.3766C17.2023 11.7633 17.0336 12.1312 16.743 12.3844L16.2297 12.8297L16.5555 13.425C16.6628 13.6211 16.7185 13.8413 16.7172 14.0648C16.7172 14.4516 16.5484 14.8195 16.2578 15.0726L15.7445 15.518L16.0703 16.1133C16.1776 16.3094 16.2333 16.5296 16.232 16.7531C16.232 17.2781 15.9227 17.7516 15.4445 17.9672H5.71094V11.2383L8.04297 2.78906C8.1031 2.57249 8.23219 2.38143 8.41066 2.24483C8.58914 2.10822 8.80728 2.03351 9.03203 2.03202C9.21016 2.03202 9.38594 2.08359 9.52656 2.18906C9.75859 2.36249 9.88281 2.62499 9.86875 2.9039L9.64375 7.5539H17.0125C17.4297 7.80937 17.6875 8.24062 17.6875 8.68827C17.6875 9.07499 17.5188 9.44062 17.2281 9.69609Z" fill="#595959"/>
</svg>
