<svg width="12" height="14" viewBox="0 0 12 14" fill="none" xmlns="http://www.w3.org/2000/svg">
<path d="M11.6438 8.55471L10.7483 7.78909C10.7907 7.52932 10.8126 7.26409 10.8126 6.99885C10.8126 6.73362 10.7907 6.46838 10.7483 6.20862L11.6438 5.44299C11.7114 5.38517 11.7597 5.30816 11.7824 5.22219C11.8051 5.13623 11.8011 5.04538 11.771 4.96174L11.7587 4.9262C11.5121 4.23717 11.143 3.59843 10.669 3.04084L10.6444 3.01213C10.5869 2.94453 10.5103 2.89593 10.4246 2.87275C10.339 2.84956 10.2483 2.85287 10.1645 2.88225L9.05301 3.27737C8.64285 2.94104 8.18485 2.67581 7.68992 2.48987L7.47528 1.32776C7.45908 1.24032 7.41667 1.15987 7.35366 1.09711C7.29066 1.03435 7.21005 0.992247 7.12254 0.976392L7.08563 0.969556C6.37332 0.84104 5.6241 0.84104 4.9118 0.969556L4.87489 0.976392C4.78738 0.992247 4.70677 1.03435 4.64377 1.09711C4.58076 1.15987 4.53835 1.24032 4.52215 1.32776L4.30614 2.49534C3.81516 2.68131 3.35795 2.94641 2.95262 3.2801L1.83289 2.88225C1.74918 2.85264 1.65843 2.84921 1.57271 2.87241C1.487 2.89561 1.41037 2.94434 1.35301 3.01213L1.3284 3.04084C0.855009 3.59883 0.485909 4.23746 0.238754 4.9262L0.226449 4.96174C0.164926 5.13264 0.215512 5.32405 0.353598 5.44299L1.26004 6.21682C1.21766 6.47385 1.19715 6.73635 1.19715 6.99749C1.19715 7.25999 1.21766 7.52249 1.26004 7.77815L0.353598 8.55198C0.286053 8.6098 0.23771 8.68682 0.214998 8.77278C0.192285 8.85875 0.19628 8.94959 0.226449 9.03323L0.238754 9.06878C0.486215 9.75784 0.852621 10.3936 1.3284 10.9541L1.35301 10.9828C1.41051 11.0504 1.48714 11.099 1.5728 11.1222C1.65847 11.1454 1.74915 11.1421 1.83289 11.1127L2.95262 10.7149C3.36004 11.0498 3.81532 11.3151 4.30614 11.4996L4.52215 12.6672C4.53835 12.7547 4.58076 12.8351 4.64377 12.8979C4.70677 12.9606 4.78738 13.0027 4.87489 13.0186L4.9118 13.0254C5.63065 13.1546 6.36678 13.1546 7.08563 13.0254L7.12254 13.0186C7.21005 13.0027 7.29066 12.9606 7.35366 12.8979C7.41667 12.8351 7.45908 12.7547 7.47528 12.6672L7.68992 11.5051C8.18465 11.3197 8.64524 11.0536 9.05301 10.7176L10.1645 11.1127C10.2483 11.1423 10.339 11.1458 10.4247 11.1226C10.5104 11.0994 10.5871 11.0506 10.6444 10.9828L10.669 10.9541C11.1448 10.3922 11.5112 9.75784 11.7587 9.06878L11.771 9.03323C11.8325 8.86506 11.7819 8.67366 11.6438 8.55471ZM9.77762 6.36995C9.8118 6.57639 9.82957 6.78831 9.82957 7.00022C9.82957 7.21213 9.8118 7.42405 9.77762 7.63049L9.68739 8.17874L10.7087 9.05237C10.5539 9.40905 10.3584 9.7467 10.1263 10.0586L8.8575 9.60881L8.42821 9.96155C8.10145 10.2295 7.73778 10.4401 7.34403 10.5877L6.82313 10.7832L6.5784 12.1094C6.19227 12.1532 5.80243 12.1532 5.41629 12.1094L5.17157 10.7805L4.65477 10.5823C4.26512 10.4346 3.90282 10.224 3.57879 9.95745L3.1495 9.60335L1.87254 10.0573C1.64012 9.74417 1.44598 9.40647 1.29012 9.051L2.32235 8.16917L2.23348 7.62229C2.20067 7.41858 2.18289 7.20803 2.18289 7.00022C2.18289 6.79104 2.1993 6.58186 2.23348 6.37815L2.32235 5.83127L1.29012 4.94944C1.44461 4.5926 1.64012 4.25627 1.87254 3.94319L3.1495 4.39709L3.57879 4.04299C3.90282 3.77639 4.26512 3.56584 4.65477 3.41819L5.17293 3.22268L5.41766 1.89377C5.80184 1.85002 6.19422 1.85002 6.57977 1.89377L6.8245 3.21995L7.34539 3.41545C7.73778 3.56311 8.10282 3.77366 8.42957 4.04163L8.85887 4.39436L10.1276 3.94456C10.36 4.25764 10.5542 4.59534 10.71 4.95081L9.68875 5.82444L9.77762 6.36995ZM6.00008 4.45725C4.67118 4.45725 3.59383 5.5346 3.59383 6.8635C3.59383 8.19241 4.67118 9.26975 6.00008 9.26975C7.32899 9.26975 8.40633 8.19241 8.40633 6.8635C8.40633 5.5346 7.32899 4.45725 6.00008 4.45725ZM7.08289 7.94631C6.94087 8.08874 6.77209 8.20169 6.58626 8.27865C6.40043 8.35561 6.20122 8.39506 6.00008 8.39475C5.59129 8.39475 5.20711 8.23479 4.91727 7.94631C4.77484 7.80429 4.6619 7.63551 4.58494 7.44968C4.50798 7.26385 4.46852 7.06464 4.46883 6.8635C4.46883 6.45471 4.62879 6.07053 4.91727 5.78069C5.20711 5.49084 5.59129 5.33225 6.00008 5.33225C6.40887 5.33225 6.79305 5.49084 7.08289 5.78069C7.22532 5.92271 7.33827 6.09149 7.41523 6.27732C7.49219 6.46315 7.53164 6.66236 7.53133 6.8635C7.53133 7.27229 7.37137 7.65647 7.08289 7.94631Z" fill="#8C8C8C"/>
</svg>
