<svg width="18" height="20" viewBox="0 0 18 20" fill="none" xmlns="http://www.w3.org/2000/svg">
<path d="M12.8976 13.0563C13.4648 12.7516 14.114 12.5781 14.8054 12.5781H14.8077C14.8781 12.5781 14.9109 12.4938 14.8593 12.4469C14.1403 11.8016 13.3189 11.2804 12.4288 10.9047C12.4195 10.9 12.4101 10.8977 12.4007 10.893C13.8562 9.83594 14.8031 8.11797 14.8031 6.17969C14.8031 2.96875 12.2062 0.367188 9.00228 0.367188C5.79837 0.367188 3.20384 2.96875 3.20384 6.17969C3.20384 8.11797 4.15072 9.83594 5.60853 10.893C5.59915 10.8977 5.58978 10.9 5.58041 10.9047C4.53275 11.3477 3.59291 11.9828 2.78431 12.7938C1.98039 13.5962 1.34036 14.5475 0.899936 15.5945C0.466608 16.6198 0.232745 17.7184 0.210874 18.8312C0.210248 18.8563 0.214636 18.8812 0.223778 18.9044C0.232921 18.9277 0.246633 18.949 0.264106 18.9669C0.28158 18.9848 0.302462 18.999 0.325521 19.0087C0.348581 19.0184 0.373352 19.0234 0.398374 19.0234H1.80228C1.90306 19.0234 1.98744 18.9414 1.98978 18.8406C2.03666 17.0312 2.76087 15.3367 4.04291 14.0523C5.36712 12.7234 7.12962 11.9922 9.00462 11.9922C10.3335 11.9922 11.6085 12.3602 12.7077 13.0492C12.736 13.067 12.7684 13.077 12.8017 13.0782C12.8351 13.0794 12.8681 13.0719 12.8976 13.0563ZM9.00462 10.2109C7.93119 10.2109 6.92103 9.79141 6.15931 9.02969C5.78453 8.65588 5.48742 8.21161 5.28509 7.72248C5.08276 7.23335 4.97921 6.70901 4.98041 6.17969C4.98041 5.10391 5.39994 4.09141 6.15931 3.32969C6.91869 2.56797 7.92884 2.14844 9.00462 2.14844C10.0804 2.14844 11.0882 2.56797 11.8499 3.32969C12.2247 3.70349 12.5218 4.14776 12.7242 4.63689C12.9265 5.12603 13.03 5.65036 13.0288 6.17969C13.0288 7.25547 12.6093 8.26797 11.8499 9.02969C11.0882 9.79141 10.0781 10.2109 9.00462 10.2109ZM17.6249 15.7891H15.6562V13.8203C15.6562 13.7172 15.5718 13.6328 15.4687 13.6328H14.1562C14.0531 13.6328 13.9687 13.7172 13.9687 13.8203V15.7891H11.9999C11.8968 15.7891 11.8124 15.8734 11.8124 15.9766V17.2891C11.8124 17.3922 11.8968 17.4766 11.9999 17.4766H13.9687V19.4453C13.9687 19.5484 14.0531 19.6328 14.1562 19.6328H15.4687C15.5718 19.6328 15.6562 19.5484 15.6562 19.4453V17.4766H17.6249C17.7281 17.4766 17.8124 17.3922 17.8124 17.2891V15.9766C17.8124 15.8734 17.7281 15.7891 17.6249 15.7891Z" fill="#CD0691"/>
</svg>
